<?xml version="1.0" ?><svg viewBox="0 0 512 512" xmlns="http://www.w3.org/2000/svg"><title/><g id="Squid"><path d="M21.33333,405.33333s10.66667-32,42.66667-64S181.33333,288,213.33333,256L256,298.66667s-42.66667,64-106.66667,64S42.66667,384,21.33333,405.33333Z" style="fill:#c82e25"/><path d="M56.625,381.33333,47.47917,362.0625c29-13.76042,63.27083-20.72917,101.85416-20.72917,40.76042,0,72.51042-33.84375,84.27084-48.39583l16.58333,13.41667c-13.67708,16.92708-50.89583,56.3125-100.85417,56.3125C113.92708,362.66667,82.73958,368.94792,56.625,381.33333Z" style="fill:#c11107"/><path d="M234.66667,192,192,234.66667C170.66667,256,128,256,128,256c-42.66667,0-106.66667,21.33333-106.66667,64,0,0,21.33334-21.33333,85.33334-21.33333s106.66666,0,128-21.33334l42.66666-42.66666Z" style="fill:#c82e25"/><path d="M45.26042,307.32292l-6.89584-20.1875c19.02084-6.5,42-9.80209,68.30209-9.80209,56.79166,0,97.83333,0,112.91666-15.08333l35.125-35.125,15.08334,15.08333-35.125,35.125c-21.33334,21.33334-63.77084,21.33334-128,21.33334C82.71875,298.66667,62.0625,301.58333,45.26042,307.32292Z" style="fill:#c11107"/><path d="M320,277.33335,277.33333,320C256,341.33335,256,384,256,384c0,42.66667-21.33333,106.66667-64,106.66667,0,0,21.33333-21.33333,21.33333-85.33333s0-106.66667,21.33334-128l42.66666-42.66667Z" style="fill:#c82e25"/><path d="M222,478.03125l-14.45833-15.6875c15.46875-14.23958,27.125-47.91667,27.125-78.34375,0-5.27083.77083-52.27083,27.58333-79.08333l35.125-35.125L312.45833,284.875,277.33333,320C256.23958,341.09375,256,383.57292,256,384,256,415.16667,244.32292,457.47917,222,478.03125Z" style="fill:#c11107"/><path d="M234.66667,256C192,256,149.33333,277.33333,149.33333,341.33333s-42.66666,64-42.66666,64c-42.66667,0-85.33334,21.33334-85.33334,85.33334,0,0,21.33334-42.66667,64-42.66667s128,0,128-85.33333c0-64,64-64,64-64Z" style="fill:#cd3e36"/><path d="M45.27083,462.25,32.16667,445.41667c16-12.44792,33.88541-18.75,53.16666-18.75,67.55209,0,106.66667-10.46875,106.66667-64,0-58.01042,41.92708-76.38542,59.94792-81.59375l5.91666,20.5c-16.625,4.80208-44.53125,19.125-44.53125,61.09375C213.33333,448,130.0625,448,85.33333,448,70.91667,448,57.42708,452.79167,45.27083,462.25Z" style="fill:#c82e25"/><path d="M362.66667,21.33333s-21.33334,0-21.33334,21.33334V149.33333l21.33334,21.33334H469.33333c21.33334,0,21.33334-21.33334,21.33334-21.33334v-128Z" style="fill:#c82e25"/><path d="M469.33333,170.66667H448V149.33333h21.33333V32h21.33334V149.33333C490.33333,162.40625,481.95833,170.66667,469.33333,170.66667Z" style="fill:#c11107"/><polygon points="490.664 21.336 490.667 21.336 490.667 21.333 490.664 21.336" style="fill:#c82e25"/><path d="M192,213.33333v.00011A106.66657,106.66657,0,0,0,298.66656,320h.00011c170.66666-170.66667,192-298.66667,192-298.66667S362.66667,42.66667,192,213.33333Z" style="fill:#d2514a"/><path d="M232.32292,252l-16.65625-13.33333C219.20833,234.25,303.4375,129.77083,410.51042,65.52083L421.48958,83.8125C317.77083,146.04167,233.16667,250.94792,232.32292,252Z" style="fill:#d96c66"/><path d="M305.97917,173.59375l-14.64584-15.5c18.28125-17.28125,36.75-33.33333,54.88542-47.70833l13.25,16.72916C341.8125,141.09375,323.8125,156.73958,305.97917,173.59375Z" style="fill:#e59b96"/><path d="M298.58333,320.10417l-4.72916-.20834a106.283,106.283,0,0,1-70.57292-31.17708l15.08333-15.08333A85.02748,85.02748,0,0,0,290.19792,298.25C414.14583,172.1875,454.14583,70.95833,465.63542,33.0625L486.05208,39.25C474,79.02083,431.92708,185.67708,301.90625,316.75Z" style="fill:#cd3e36"/><path d="M245.33333,234.66667V213.33333a32.035,32.035,0,0,0,32-32h21.33334A53.39613,53.39613,0,0,1,245.33333,234.66667Z" style="fill:#cd3e36"/><circle cx="245.33333" cy="181.33333" r="32" style="fill:#2b1718"/><circle cx="266.66667" cy="181.33333" r="10.66667" style="fill:#afa8a8"/><circle cx="330.66667" cy="266.66667" r="32" style="fill:#2b1718"/><circle cx="352" cy="266.66667" r="10.66667" style="fill:#afa8a8"/></g></svg>